<?xml version="1.0" encoding="UTF-8"?>
<svg id="Layer_1" data-name="Layer 1" xmlns="http://www.w3.org/2000/svg" viewBox="0 0 180 180">
  <defs>
    <style>
      .cls-1 {
        fill: #000;
      }

      .cls-1, .cls-2 {
        stroke-width: 0px;
      }

      .cls-2 {
        fill: #fff;
      }
    </style>
  </defs>
  <path class="cls-2" d="M0,180V0h180v180H0ZM58.44,110.25c0,1.71,0,3,0,4.29,0,8.52.11,17.04-.04,25.55-.09,4.75,1.96,8.12,5.96,10.26,2.41,1.29,5.01,2.38,7.65,3.02,10.28,2.49,20.7,2.6,31.09.94,3.97-.63,7.95-1.87,11.64-3.48,4.65-2.03,7.05-5.75,6.88-11.15-.23-7.43-.06-14.88-.06-22.31,0-2.24,0-4.49,0-7.12,3.62,0,6.83-.09,10.04.03,2.49.09,3.45-1.01,3.44-3.42-.05-15,.21-30-.15-44.99-.28-11.83-8.71-21.03-20.36-23.23-1.37-.26-2.75-.49-4.3-.76,0-1.52,0-2.83,0-4.14-.02-4.58-.89-6.1-5.32-7.22-10.06-2.55-20.18-2.53-30.24.1-3.4.89-5.36,3-4.94,6.82.16,1.5.03,3.04.03,4.54-1.62.25-2.8.42-3.98.62-11.85,2.09-20.36,11.27-20.66,23.32-.38,14.99-.1,29.99-.15,44.99,0,2.46,1.05,3.46,3.49,3.38,3.2-.1,6.41-.03,9.99-.03Z"/>
  <path class="cls-1" d="M58.04,112.17c0-1.05-.85-1.92-1.91-1.92-2.83-.02-5.46-.05-8.09.03-2.44.08-3.5-.92-3.49-3.38.05-15-.23-30,.15-44.99.31-12.05,8.82-21.22,20.66-23.32.75-.13,1.51-.25,2.38-.38.92-.14,1.61-.92,1.63-1.84.03-.98.05-1.96-.06-2.94-.41-3.82,1.54-5.93,4.94-6.82,9.36-2.45,18.77-2.63,28.14-.59,4.35.95,7.42,4.84,7.42,9.29,0,.31,0,.63,0,.95,0,.93.67,1.74,1.59,1.9s1.82.32,2.71.49c11.65,2.2,20.07,11.4,20.36,23.23.36,14.99.1,29.99.15,44.99,0,2.41-.95,3.51-3.44,3.42-2.63-.09-5.27-.05-8.13-.03-1.05,0-1.91.87-1.91,1.92,0,1.84,0,3.52,0,5.2,0,7.44-.17,14.88.06,22.31.17,5.4-2.23,9.12-6.88,11.15-3.69,1.61-7.66,2.85-11.64,3.48-10.39,1.65-20.81,1.55-31.09-.94-2.64-.64-5.24-1.73-7.65-3.02-4.01-2.14-6.05-5.51-5.96-10.26.15-8.52.04-17.04.04-25.55,0-.76,0-1.52,0-2.37ZM80.55,48.89c0-.76-.45-1.44-1.15-1.75-3.45-1.53-6.55-2.93-9.69-4.22-.71-.29-1.65-.1-2.48,0-10.4,1.15-17.95,9.35-18.08,19.92-.13,10.44-.03,20.88-.01,31.33,0,.19.01.39.03.58.1.96.94,1.68,1.91,1.68h5.01c1.06,0,1.92-.86,1.92-1.92,0-.92,0-1.78,0-2.63,0-4.8-.13-9.61.1-14.4.02-.46.27-.91.6-1.35.74-1,2.26-1.01,3.03-.02.3.39.61,1.06.64,1.25.12.7.22,1.61.22,2.45,0,19.8.11,39.61-.07,59.41-.04,4.14,1.64,6.59,5.18,8.08,1.76.74,3.59,1.39,5.45,1.82,9.12,2.11,18.35,2.09,27.56.93,3.64-.46,7.26-1.56,10.73-2.8,3.6-1.28,5.23-3.88,5.19-8.04-.19-19.44-.08-38.89-.08-58.33,0-1.2-.3-2.52.1-3.57.17-.46.46-.88.79-1.29.78-.97,2.28-.92,3.02.08.25.34.46.69.61,1.06.36.95.09,2.13.09,3.21,0,4.72,0,9.44,0,14.18,0,1.06.86,1.92,1.92,1.92h4.86c1.06,0,1.91-.86,1.92-1.91.05-11.68.49-23.17-.19-34.6-.47-7.91-5.67-13.3-13.2-16.02-3.27-1.18-6.58-2.04-9.8.64-1.11.93-2.87,1.39-4.37,1.47-3.17.18-3.8,1.76-3.74,4.66.17,9.48-.01,18.96.11,28.44.04,3.12-1.14,4.38-4.24,4.21-2.75-.15-5.52-.03-8.28-.03-5.57,0-5.6-.04-5.6-5.63,0-9.75,0-19.49,0-28.79ZM91.96,47.49h-4.65c-1.06,0-1.92.86-1.92,1.92v27.13c0,1.06.86,1.92,1.92,1.92h4.65c1.06,0,1.92-.86,1.92-1.92v-27.13c0-1.06-.86-1.92-1.92-1.92ZM76.49,36.65c-1.82-.53-3.26,1.66-2,3.08.52.59,1.29,1.03,2.3,1.3,8.54,2.28,17.08,2.26,25.61.02,1.37-.36,2.3-1.05,2.77-2.01.7-1.43-.65-3.04-2.2-2.65-9.02,2.23-19.36,2.33-26.49.27ZM85.33,33.42c2.85.26,5.7.27,8.54.02,2.33-.21,2.32-3.64,0-3.84-2.84-.25-5.69-.25-8.53-.02-2.32.19-2.33,3.62-.01,3.84ZM51.3,105.52h4.5c1.06,0,1.92-.86,1.92-1.92v-.05c0-1.06-.86-1.92-1.92-1.92h-4.5c-1.06,0-1.92.86-1.92,1.92v.05c0,1.06.86,1.92,1.92,1.92ZM127.99,101.6h-4.56c-1.06,0-1.92.86-1.92,1.92h0c0,1.06.86,1.92,1.92,1.92h4.56c1.06,0,1.92-.86,1.92-1.92h0c0-1.06-.86-1.92-1.92-1.92Z"/>
  <path class="cls-2" d="M80.55,47.65c0,9.67,0,19.85,0,30.04,0,5.59.03,5.63,5.6,5.63,2.76,0,5.53-.12,8.28.03,3.1.17,4.28-1.09,4.24-4.21-.12-9.48.06-18.97-.11-28.44-.05-2.9.57-4.47,3.74-4.66,1.5-.09,3.26-.55,4.37-1.47,3.21-2.68,6.52-1.82,9.8-.64,7.52,2.72,12.73,8.11,13.2,16.02.71,12.05.19,24.18.19,36.51h-8.69c0-5.38,0-10.74,0-16.1,0-1.08.27-2.27-.09-3.21,0-.01,0-.02-.01-.03-.74-1.89-3.52-1.85-4.34.01-.02.05-.05.11-.07.17-.4,1.05-.1,2.37-.1,3.57,0,19.44-.11,38.89.08,58.33.04,4.16-1.59,6.76-5.19,8.04-3.48,1.24-7.09,2.34-10.73,2.8-9.21,1.16-18.44,1.19-27.56-.93-1.86-.43-3.69-1.08-5.45-1.82-3.54-1.49-5.22-3.94-5.18-8.08.18-19.8.08-39.61.07-59.41,0-.84.27-1.82-.07-2.49-.56-1.11-1.52-2.03-2.31-3.03-.73,1.06-2.05,2.09-2.1,3.19-.23,4.79-.1,9.6-.1,14.4,0,1.42,0,2.85,0,4.55h-8.56c-.1-.67-.31-1.47-.31-2.26-.02-10.44-.12-20.89.01-31.33.13-10.57,7.68-18.77,18.08-19.92.82-.09,1.77-.28,2.48,0,3.49,1.43,6.92,3,10.84,4.73Z"/>
  <path class="cls-2" d="M93.88,47.49v30.97h-8.49v-30.97h8.49ZM92.73,54.02c-1.51-1.04-2.35-2.05-3.21-2.07-.69-.01-2.06,1.32-1.96,1.82.17.89,1.15,2.12,1.95,2.25.74.12,1.7-.99,3.22-2.01ZM89.56,68.85c-1.01,1.54-2.12,2.49-1.99,3.24.13.8,1.36,1.77,2.26,1.95.5.1,1.83-1.28,1.81-1.97-.02-.87-1.03-1.71-2.07-3.23ZM92.69,63.01c-1.47-1.02-2.31-2.04-3.19-2.07-.67-.02-2.04,1.34-1.94,1.87.17.9,1.17,2.15,1.97,2.27.75.11,1.69-1.04,3.16-2.06Z"/>
  <path class="cls-2" d="M74.42,31.03c-.06-4.22,30.41-4.22,30.35-.07,0,0,0,0,0,0,1.69,3.81-32.05,4.39-30.35.07Z"/>
  <path class="cls-2" d="M49.38,105.52v-3.89h8.33v3.89h-8.33Z"/>
  <path class="cls-2" d="M129.91,101.6v3.84h-8.4v-3.84h8.4Z"/>
  <rect class="cls-1" x="87.4" y="51.88" width="4.48" height="4.23" rx="2.12" ry="2.12"/>
  <rect class="cls-1" x="87.4" y="60.89" width="4.48" height="4.23" rx="2.12" ry="2.12"/>
  <rect class="cls-1" x="87.4" y="69.33" width="4.48" height="4.23" rx="2.12" ry="2.12"/>
</svg>