<?xml version="1.0" encoding="UTF-8"?>
<svg id="Layer_1" data-name="Layer 1" xmlns="http://www.w3.org/2000/svg" version="1.1" xmlns:xlink="http://www.w3.org/1999/xlink" viewBox="0 0 737.5 369.5">
  <defs>
    <style>
      .cls-1 {
        isolation: isolate;
      }

      .cls-2, .cls-3 {
        fill: none;
      }

      .cls-2, .cls-4 {
        stroke-width: 0px;
      }

      .cls-3 {
        stroke: #fff;
        stroke-miterlimit: 5.5;
        stroke-width: 8.1px;
      }

      .cls-5 {
        clip-path: url(#clippath);
      }

      .cls-4 {
        fill: #fff;
      }

      .cls-6 {
        mask: url(#mask);
      }
    </style>
    <clipPath id="clippath">
      <rect class="cls-2" x="251.8" y="-28.6" width="243.5" height="243.8"/>
    </clipPath>
    <mask id="mask" x="251.8" y="-28.7" width="244" height="244" maskUnits="userSpaceOnUse">
      <g id="_21230ff2b4" data-name="21230ff2b4">
        <image class="cls-1" width="180" height="180" transform="translate(251.8 -28.7) scale(1.4)" xlink:href="Thobe shop_footer-1.png"/>
      </g>
    </mask>
  </defs>
  <path class="cls-3" d="M158,238.5c-3.5-3.8-7.2-6.7-11.2-8.7-4-2-9.7-3-17.2-3s-13.1,1.1-16.8,3.3c-3.6,2.2-5.4,4.8-5.4,7.8,0,5.2,4.6,8.9,13.9,11l36.1,9.4c13.2,3.3,23.1,9.2,29.8,17.5,6.7,8.3,10,18.3,10,29.9s-2.8,20-8.5,28c-5.7,8-13.7,14.1-24.2,18.5-10.5,4.3-22.8,6.5-36.8,6.5s-30.5-2.6-43.6-7.9c-13.1-5.3-22.2-12.2-27.2-20.8-.7-1.4-1.1-2.5-1.1-3.2,0-1.5.8-2.8,2.4-3.9l22.4-15.4c1.6-1,3-1.5,4.3-1.5s2.9.6,3.9,1.9c4.9,6.4,9.9,10.9,15,13.5,5.1,2.6,11.8,3.9,20.2,3.9s14.6-1.1,19.3-3.3c4.7-2.3,7.1-5.3,7.1-9.2s-1.2-5.1-3.5-7.2c-2.3-2-5.7-3.6-10.2-4.6l-33-8c-13-3.2-23.4-9.2-31-17.9-7.7-8.8-11.5-18.9-11.5-30.3s2.7-18.1,8.2-26c5.5-7.9,13.3-14.1,23.4-18.7,10.1-4.6,21.9-6.8,35.2-6.8s25.1,2.1,36.3,6.4c11.1,4.2,19.2,9.9,24.1,17,1,1.3,1.5,2.5,1.5,3.7s-.5,1.9-1.5,2.8l-23.7,17.2c-.7.6-1.5.8-2.4.8s-2.4-.9-4.1-2.6ZM267.1,291.9c-1,0-1.8.3-2.5,1-.6.6-1,1.4-1,2.3v54.9c0,2.3-.6,4-1.7,4.9-1.2.9-3,1.4-5.4,1.4h-36.3c-2.2,0-3.7-.4-4.6-1.3-.8-.9-1.3-2.3-1.3-4.1v-150.8c0-1.6.4-2.8,1.1-3.7.7-.9,1.8-1.3,3.1-1.3h41.3c1.2,0,2.1.4,2.8,1.2.7.8,1.1,1.9,1.1,3.3v50.4c0,2.9,1.3,4.3,3.9,4.3h36.5c2.6,0,3.9-1.4,3.9-4.3v-50.4c0-1.4.4-2.6,1.1-3.3.7-.8,1.7-1.2,2.9-1.2h41.3c1.3,0,2.3.4,3,1.3.7.8,1.1,2.1,1.1,3.7v150.8c0,1.9-.4,3.2-1.3,4.1-.8.8-2.4,1.3-4.5,1.3h-36.3c-2.5,0-4.3-.5-5.5-1.4-1.2-1-1.8-2.6-1.8-4.9v-54.9c0-.9-.3-1.6-1-2.3-.6-.7-1.5-1-2.5-1h-37.4ZM453.5,358.6c-15.8,0-29.6-3.4-41.4-10.1-11.8-6.8-20.9-16.3-27.3-28.7-6.4-12.4-9.5-26.9-9.5-43.5s3.2-31.2,9.7-43.8c6.5-12.6,15.6-22.3,27.4-29.1,11.8-6.9,25.5-10.3,41.2-10.3s29.1,3.4,40.8,10.3c11.7,6.9,20.8,16.6,27.3,29.1,6.5,12.5,9.7,27.1,9.7,43.8s-3.2,31-9.6,43.4c-6.4,12.4-15.4,22-27.2,28.8-11.7,6.7-25.4,10.1-41,10.1ZM453.5,324.7c6.4,0,11.4-1.6,15.2-4.7,3.8-3.1,6.5-8.1,8.3-15.1,1.7-7,2.6-16.3,2.6-28.1,0-18-2-30.8-6.1-38.7-4-7.8-10.7-11.7-19.9-11.7s-16.2,3.9-20.4,11.7c-4.1,7.8-6.2,20.7-6.2,38.7s.9,21.1,2.6,28.1c1.7,6.9,4.5,11.9,8.3,15.1,3.9,3.1,9.1,4.7,15.6,4.7ZM690.7,247.6c0,10.4-2.5,19.5-7.5,27.2-5,7.7-12,13.6-21.1,17.7-9.1,4.1-19.4,6.2-31.2,6.2h-29.8c-1.7,0-2.6.8-2.6,2.4v49.1c0,2.3-.6,4-1.7,4.9-1.2.9-3,1.4-5.4,1.4h-36.5c-2.2,0-3.6-.4-4.5-1.3-.8-.9-1.2-2.3-1.2-4.1v-150.8c0-3.3,1.4-5,4.1-5h71.9c12.2,0,23.2,2,33.1,6,9.9,4,17.8,9.8,23.6,17.7,5.8,7.8,8.7,17.4,8.7,28.7ZM640.3,247c0-5.1-1.7-9.2-5.2-12.3-3.5-3.1-7.7-4.7-12.8-4.7h-18.7c-1.9,0-3.2.4-3.9,1.1-.7.7-1.1,1.9-1.1,3.4v24.6c0,1.7.3,3,.8,3.7.6.7,1.5,1.1,2.8,1.1h21.3c5.1,0,9.1-1.6,12.1-4.9,3-3.3,4.6-7.3,4.6-12Z"/>
  <path class="cls-4" d="M8.9,19.5c0-1.4.4-2.6,1.4-3.5.9-.9,2.2-1.4,3.9-1.4h125.8c1.7,0,3,.5,3.9,1.4.9.9,1.4,2.1,1.4,3.5v25c0,2.7-1.5,4-4.6,4h-37.2c-1.7,0-2.5.7-2.5,2.1v115.5c0,1.5-.4,2.7-1.1,3.5-.7.8-1.7,1.1-2.9,1.1h-40c-2.5,0-3.8-1.4-3.8-4.2V51.4c0-2-.8-2.9-2.3-2.9H13.7c-3.2,0-4.8-1.3-4.8-4v-25Z"/>
  <path class="cls-4" d="M213.1,108.2c-1,0-1.8.3-2.4,1-.6.6-.9,1.4-.9,2.2v53.2c0,2.3-.6,3.8-1.7,4.8-1.1.9-2.9,1.4-5.3,1.4h-35.1c-2.1,0-3.6-.4-4.4-1.3-.8-.8-1.3-2.2-1.3-4V19.5c0-1.5.3-2.7,1-3.6.7-.8,1.7-1.3,3-1.3h40c1.1,0,2,.4,2.7,1.2.7.8,1.1,1.8,1.1,3.3v48.8c0,2.8,1.3,4.2,3.8,4.2h35.3c2.5,0,3.8-1.4,3.8-4.2V19.1c0-1.4.3-2.5,1-3.3.7-.8,1.6-1.2,2.8-1.2h40c1.3,0,2.2.4,2.9,1.3.7.8,1,2,1,3.6v146c0,1.8-.4,3.2-1.3,4-.8.8-2.3,1.3-4.4,1.3h-35.1c-2.4,0-4.1-.4-5.3-1.4-1.1-.9-1.7-2.5-1.7-4.8v-53.2c0-.8-.3-1.6-1-2.2-.6-.6-1.4-1-2.4-1h-36.2Z"/>
  <path class="cls-4" d="M453.3,170.7c-1.4,0-2.6-.4-3.5-1.4-.9-.9-1.4-2-1.4-3.3V20.1c0-1.5.5-2.8,1.5-3.9,1-1.1,2.3-1.6,3.8-1.6h62.7c21.9,0,38.4,3.5,49.7,10.4,11.3,6.9,16.9,17.2,16.9,30.8s-2,13.7-6.1,18.8c-4.1,5.1-11.2,10.1-21.5,14.8-.3.1-.4.4-.4.8s.1.6.4.7c11.4,4.2,19.4,9.2,24.2,14.9,4.8,5.8,7.1,13.2,7.1,22.3,0,14.4-5.5,25.1-16.5,32.1-11,6.9-27.9,10.4-50.6,10.4h-66.5ZM519.7,75.6c4.9,0,8.8-1.3,11.8-4,2.9-2.7,4.4-6.1,4.4-10.3s-1.7-8.1-5-10.9c-3.4-2.8-7.6-4.2-12.6-4.2h-17.2c-1.8,0-3.1.3-3.8,1-.7.6-1,1.7-1,3.3v20.6c0,1.7.3,2.9.8,3.6.6.7,1.5,1,2.7,1h20ZM518.7,139.1c5.8,0,10.3-1.6,13.6-4.8,3.3-3.2,4.9-7,4.9-11.4s-1.6-7.9-4.8-10.7c-3.2-2.8-7.4-4.2-12.6-4.2h-18.7c-1.8,0-3.1.4-3.8,1.1-.7.7-1,1.8-1,3.4v22.1c0,1.7.3,2.9.8,3.6.6.7,1.5,1,2.7,1h18.9Z"/>
  <path class="cls-4" d="M603.9,19.5c0-3.2,1.3-4.8,4-4.8h113.6c2.5,0,3.8,1.5,3.8,4.4l-.2,24.4c0,3.8-1.8,5.7-5.5,5.7h-63.1c-3.2,0-4.8,1.3-4.8,4v17.9c0,1.4.3,2.5,1,3.3.7.8,1.6,1.1,2.7,1.1h37.9c2.9,0,4.4,1.4,4.4,4.2v26.1c0,2.4-1.3,3.6-3.8,3.6h-38.9c-1,0-1.8.3-2.4.9-.6.6-.9,1.3-.9,2.1v21c0,1.1.2,1.9.5,2.3.3.4,1,.6,2,.6h68.4c3.1,0,4.6,1.3,4.6,4v25.9c0,1.4-.4,2.5-1.3,3.4-.8.8-2.1,1.3-3.8,1.3h-112.5c-2.1,0-3.6-.4-4.4-1.3-.8-.8-1.3-2.2-1.3-4V19.5Z"/>
  <g class="cls-5">
    <g class="cls-6">
      <image class="cls-1" width="180" height="180" transform="translate(251.8 -28.7) scale(1.4)" xlink:href="Thobe shop_footer-2.png"/>
    </g>
  </g>
</svg>